. 
  
http://www.torrentday.com   -    Your Key To The Scene.

Now TvTeam with [No-RAR] Releases.

(((((((((((((= Enjoy No RAR releases =))))))))))))))))))))

...................................NFO:....................................


The.Losers.2010.DVDSCR.XviD-DUBBY

IMDB: http://www.imdb.com/title/tt0480255/
Genre: Action | Adventure | Crime | Mystery | Thriller 
Ratings: 6.9/10   2,173 votes

Plot: After being betrayed and left for dead, members of a CIA black
ops team root out those who targeted them for assassination...

Video Source: The Losers DVDSCR XViD - IMAGiNE
Audio Source: The Losers DVDSCR XViD - IMAGiNE
New Folder:   The.Losers.2010.DVDSCR.XviD-DUBBY


Work Done: Jesus, soon as i get the telesync all downloaded and start
working on it, imagine releases a dvdscreener, ok so here is what i did:
basically just added a little Red to it, thought it had a bit too much orange
didnt make hardly any changes, just encoded it to a smaller file size, enjoy!

Video
ID                               : 0
Format                           : MPEG-4 Visual
Format profile                   : Advanced Simple@L5
Format settings, BVOP            : Yes
Format settings, QPel            : No
Format settings, GMC             : No warppoints
Format settings, Matrix          : Default (H.263)
Muxing mode                      : Packed bitstream
Codec ID                         : XVID
Codec ID/Hint                    : XviD
Duration                         : 1h 36mn
Bit rate                         : 877 Kbps
Width                            : 640 pixels
Height                           : 272 pixels
Display aspect ratio             : 2.35:1
Frame rate                       : 23.976 fps
Resolution                       : 8 bits
Colorimetry                      : 4:2:0
Scan type                        : Progressive
Bits/(Pixel*Frame)               : 0.210
Stream size                      : 609 MiB (86%)
Writing library                  : XviD 1.2.1 (UTC 2008-12-04)

Audio
ID                               : 1
Format                           : MPEG Audio
Format version                   : Version 1
Format profile                   : Layer 3
Mode                             : Joint stereo
Format_Settings_ModeExtension    : MS Stereo
Codec ID                         : 55
Codec ID/Hint                    : MP3
Duration                         : 1h 36mn
Bit rate mode                    : Constant
Bit rate                         : 128 Kbps
Channel(s)                       : 2 channels
Sampling rate                    : 48.0 KHz
Stream size                      : 88.8 MiB (13%)
Alignment                        : Split accross interleaves
Interleave, duration             : 42 ms (1.00 video frame)
Interleave, preload duration     : 500 ms

Greets out to my friends at extratorrent, Noir, IMAGiNE, Campbellsoup,
badass, sam, and wrath and many others past and present.

Please note that i am looking for Cam sources, video and audio. Please
contact me if you have anything usefull thanks.
